<?xml version="1.0" encoding="utf-8"?>
<!-- Generator: Adobe Illustrator 23.0.3, SVG Export Plug-In . SVG Version: 6.00 Build 0)  -->
<svg version="1.1" xmlns="http://www.w3.org/2000/svg" xmlns:xlink="http://www.w3.org/1999/xlink" x="0px" y="0px"
	 viewBox="0 0 32 32" style="enable-background:new 0 0 32 32;" xml:space="preserve">
<style type="text/css">
	.st0{fill:#4A4A4A;}
	.st1{fill:#D4D4D4;}
</style>
<g id="Слой_1">
	<ellipse class="st0" cx="16" cy="16.1" rx="15.6" ry="15.4"/>
	<path class="st1" d="M14,19.8c-1.9,0-3.6,0-5.3,0c-1.6,0-2.3-0.7-2.3-2.3c0-1.1,0-2.2,0-3.3c0-1.3,0.8-2,2.1-2c1.8,0,3.6,0,5.5,0
		c0-1.2-0.1-2.3,0-3.4c0-0.5,0.3-1.1,0.6-1.4c0.3-0.2,1,0.1,1.4,0.3c2.9,2.2,5.8,4.5,8.7,6.7c1.2,0.9,1.2,2.2,0,3.1
		c-2.9,2.3-5.8,4.5-8.7,6.7c-0.4,0.3-1.1,0.5-1.4,0.3c-0.4-0.2-0.6-0.9-0.6-1.4C13.9,22.2,14,21.1,14,19.8z"/>
</g>
<g id="Слой_2">
</g>
</svg>
