<?xml version="1.0" encoding="utf-8"?>
<!-- Generator: Adobe Illustrator 23.0.3, SVG Export Plug-In . SVG Version: 6.00 Build 0)  -->
<svg version="1.1" id="Слой_1" xmlns="http://www.w3.org/2000/svg" xmlns:xlink="http://www.w3.org/1999/xlink" x="0px" y="0px"
	 viewBox="0 0 32 32" style="enable-background:new 0 0 32 32;" xml:space="preserve">
<style type="text/css">
	.st0{fill:#4A4A4A;}
</style>
<path class="st0" d="M1.5,0.1c-0.4,0-0.8,0.1-1.1,0.4C0,0.9-0.1,1.5,0.1,2l11.1,27.9c0.2,0.5,0.6,0.8,1.2,0.9c0.5,0,1-0.2,1.3-0.7
	l4.6-7.8l9.2,9.2c0.4,0.4,0.9,0.6,1.5,0.6c0.6,0,1.1-0.2,1.5-0.6l1-1c0.8-0.8,0.8-2.1,0-2.9l-9.2-9.2l7.8-4.6
	c0.5-0.3,0.7-0.8,0.7-1.3c0-0.5-0.4-1-0.9-1.2L1.9,0.2C1.8,0.1,1.6,0.1,1.5,0.1z M1.4,1.5l27.9,11.1l-7.8,4.6
	c-0.4,0.2-0.6,0.6-0.7,1s0.1,0.8,0.4,1.1l9.2,9.2c0.3,0.3,0.3,0.7,0,1l-1,1c-0.3,0.3-0.7,0.3-1,0l-9.2-9.2c-0.3-0.3-0.6-0.4-1-0.4
	c-0.1,0-0.1,0-0.2,0c-0.4,0.1-0.8,0.3-1,0.7l-4.6,7.8L1.4,1.5z M7,5.3c-0.3,0-0.5,0.2-0.6,0.4c-0.1,0.4,0,0.8,0.4,0.9L9,7.5
	c0.1,0,0.2,0,0.3,0c0.3,0,0.5-0.2,0.6-0.4c0.1-0.4,0-0.8-0.4-0.9L7.3,5.4C7.2,5.3,7.1,5.3,7,5.3z M12,7.3c-0.3,0-0.5,0.2-0.6,0.4
	c-0.1,0.4,0,0.8,0.4,0.9l10.1,4c0.1,0,0.2,0,0.3,0c0.3,0,0.5-0.2,0.6-0.4c0.1-0.4,0-0.8-0.4-0.9l-10.1-4C12.2,7.3,12.1,7.3,12,7.3z"
	/>
</svg>
